<svg width="75" height="75" viewBox="0 0 75 75" fill="none" xmlns="http://www.w3.org/2000/svg">
    <path d="M11.2173 72.3749V8.93742C11.2173 5.31301 14.1554 2.37492 17.7798 2.37492H57.1548C60.7792 2.37492 63.7173 5.31301 63.7173 8.93742V72.3749L37.4673 57.0624L11.2173 72.3749Z" fill="url(#paint0_linear_102_17)"/>
    <path d="M11.7173 71.5044V8.93742C11.7173 5.58915 14.4315 2.87492 17.7798 2.87492H57.1548C60.5031 2.87492 63.2173 5.58915 63.2173 8.93742V71.5044L37.7193 56.6305L37.4673 56.4836L37.2154 56.6305L11.7173 71.5044Z" stroke="#E2E2E2" stroke-opacity="0.5"/>
    <path d="M41.1457 13.1182C40.5025 9.15653 38.9852 6.37492 37.2195 6.37492C35.4539 6.37492 33.9366 9.15653 33.2933 13.1182H41.1457ZM32.9606 17.3771C32.9606 18.362 33.0138 19.307 33.107 20.2164H41.3276C41.4208 19.307 41.474 18.362 41.474 17.3771C41.474 16.3923 41.4208 15.4473 41.3276 14.5379H33.107C33.0138 15.4473 32.9606 16.3923 32.9606 17.3771ZM47.3655 13.1182C46.0967 10.1059 43.5281 7.77682 40.3561 6.83631C41.4385 8.3358 42.1838 10.5939 42.5742 13.1182H47.3655ZM34.0786 6.83631C30.911 7.77682 28.3379 10.1059 27.0735 13.1182H31.8648C32.2508 10.5939 32.9961 8.3358 34.0786 6.83631ZM47.8402 14.5379H42.7517C42.8449 15.4695 42.8981 16.4233 42.8981 17.3771C42.8981 18.331 42.8449 19.2848 42.7517 20.2164H47.8358C48.0798 19.307 48.2173 18.362 48.2173 17.3771C48.2173 16.3923 48.0798 15.4473 47.8402 14.5379ZM31.541 17.3771C31.541 16.4233 31.5942 15.4695 31.6874 14.5379H26.5988C26.3593 15.4473 26.2173 16.3923 26.2173 17.3771C26.2173 18.362 26.3593 19.307 26.5988 20.2164H31.6829C31.5942 19.2848 31.541 18.331 31.541 17.3771ZM33.2933 21.6361C33.9366 25.5977 35.4539 28.3794 37.2195 28.3794C38.9852 28.3794 40.5025 25.5977 41.1457 21.6361H33.2933ZM40.3605 27.918C43.5281 26.9775 46.1012 24.6484 47.37 21.6361H42.5787C42.1883 24.1604 41.443 26.4185 40.3605 27.918ZM27.0735 21.6361C28.3423 24.6484 30.911 26.9775 34.083 27.918C33.0005 26.4185 32.2552 24.1604 31.8648 21.6361H27.0735Z" fill="#111111"/>
    <path d="M41.1457 13.3682H41.4396L41.3925 13.0781C41.068 11.0794 40.5208 9.36207 39.8206 8.13689C39.1285 6.92583 38.2429 6.12492 37.2195 6.12492C36.1962 6.12492 35.3106 6.92583 34.6185 8.13689C33.9183 9.36207 33.3711 11.0794 33.0466 13.0781L32.9995 13.3682H33.2933H41.1457ZM32.8583 20.2419L32.8813 20.4664H33.107H41.3276H41.5533L41.5763 20.2419C41.6703 19.3245 41.724 18.3711 41.724 17.3771C41.724 16.3832 41.6703 15.4297 41.5763 14.5124L41.5533 14.2879H41.3276H33.107H32.8813L32.8583 14.5124C32.7643 15.4297 32.7106 16.3832 32.7106 17.3771C32.7106 18.3711 32.7643 19.3245 32.8583 20.2419ZM47.3655 13.3682H47.7421L47.5959 13.0212C46.2984 9.94057 43.6717 7.55864 40.4271 6.59662L39.7242 6.38822L40.1534 6.98264C41.2029 8.4365 41.9396 10.6503 42.3272 13.1564L42.3599 13.3682H42.5742H47.3655ZM34.2813 6.98264L34.7107 6.38784L34.0074 6.59665C30.7675 7.55863 28.1362 9.94048 26.843 13.0215L26.6975 13.3682H27.0735H31.8648H32.0795L32.112 13.156C32.4951 10.6502 33.2318 8.43645 34.2813 6.98264ZM48.082 14.4742L48.0329 14.2879H47.8402H42.7517H42.4755L42.5029 14.5627C42.5954 15.487 42.6481 16.4325 42.6481 17.3771C42.6481 18.3218 42.5954 19.2672 42.5029 20.1915L42.4755 20.4664H42.7517H47.8358H48.0276L48.0772 20.2812C48.3264 19.3524 48.4673 18.3856 48.4673 17.3771C48.4673 16.3687 48.3265 15.4023 48.082 14.4742ZM31.9361 14.5627L31.9636 14.2879H31.6874H26.5988H26.4062L26.3571 14.4742C26.1128 15.4015 25.9673 16.368 25.9673 17.3771C25.9673 18.3863 26.1128 19.3528 26.3571 20.2801L26.4062 20.4664H26.5988H31.6829H31.9579L31.9318 20.1927C31.8437 19.2676 31.791 18.3218 31.791 17.3771C31.791 16.4325 31.8437 15.487 31.9361 14.5627ZM33.2933 21.3861H32.9995L33.0466 21.6761C33.3711 23.6749 33.9183 25.3922 34.6185 26.6174C35.3106 27.8285 36.1962 28.6294 37.2195 28.6294C38.2429 28.6294 39.1285 27.8285 39.8206 26.6174C40.5208 25.3922 41.068 23.6749 41.3925 21.6761L41.4396 21.3861H41.1457H33.2933ZM40.1578 27.7716L39.7284 28.3664L40.4316 28.1576C43.6716 27.1956 46.3027 24.8138 47.6004 21.7331L47.7465 21.3861H47.37H42.5787H42.3644L42.3316 21.5979C41.944 24.104 41.2073 26.3178 40.1578 27.7716ZM27.0735 21.3861H26.697L26.8431 21.7331C28.1407 24.8137 30.7674 27.1956 34.0119 28.1577L34.7148 28.3661L34.2857 27.7716C33.2362 26.3178 32.4995 24.104 32.1119 21.5979L32.0791 21.3861H31.8648H27.0735Z" stroke="#E2E2E2" stroke-opacity="0.5" stroke-width="0.5"/>
    <path d="M38.786 42.8063C40.5364 44.5585 40.5124 47.3678 38.7966 49.0931C38.7934 49.0966 38.7896 49.1004 38.786 49.1039L36.8173 51.0727C35.0809 52.8091 32.2558 52.8089 30.5196 51.0727C28.7832 49.3366 28.7832 46.5112 30.5196 44.7751L31.6067 43.688C31.895 43.3997 32.3915 43.5913 32.4064 43.9987C32.4253 44.5179 32.5184 45.0395 32.6902 45.5432C32.7484 45.7138 32.7069 45.9025 32.5794 46.0299L32.196 46.4133C31.3749 47.2344 31.3492 48.5713 32.1622 49.4004C32.9832 50.2377 34.3327 50.2427 35.16 49.4154L37.1287 47.4469C37.9546 46.621 37.9512 45.2861 37.1287 44.4636C37.0203 44.3554 36.9111 44.2713 36.8258 44.2126C36.7654 44.1711 36.7156 44.1162 36.6802 44.052C36.6449 43.9879 36.625 43.9164 36.6222 43.8433C36.6106 43.5337 36.7203 43.2147 36.9649 42.97L37.5818 42.3532C37.7435 42.1915 37.9973 42.1716 38.1848 42.3025C38.3996 42.4525 38.6008 42.6211 38.786 42.8063ZM42.915 38.6772C41.1788 36.941 38.3538 36.9407 36.6173 38.6772L34.6486 40.6459C34.6451 40.6494 34.6413 40.6532 34.638 40.6567C32.9222 42.3821 32.8982 45.1913 34.6486 46.9435C34.8338 47.1288 35.035 47.2974 35.2498 47.4473C35.4374 47.5782 35.6911 47.5583 35.8528 47.3966L36.4697 46.7798C36.7143 46.5351 36.824 46.2161 36.8124 45.9066C36.8096 45.8334 36.7897 45.7619 36.7544 45.6978C36.719 45.6337 36.6692 45.5787 36.6088 45.5372C36.5235 45.4785 36.4143 45.3944 36.3059 45.2862C35.4834 44.4637 35.48 43.1288 36.3059 42.3029L38.2746 40.3344C39.102 39.5071 40.4514 39.5121 41.2724 40.3494C42.0854 41.1785 42.0597 42.5154 41.2386 43.3365L40.8552 43.7199C40.7278 43.8473 40.6862 44.036 40.7444 44.2066C40.9162 44.7103 41.0093 45.2319 41.0283 45.7511C41.0432 46.1585 41.5396 46.3501 41.8279 46.0619L42.915 44.9748C44.6514 43.2387 44.6514 40.4133 42.915 38.6772Z" fill="#111111"/>
    <path d="M38.6192 48.9167L38.6193 48.9168C40.2389 47.2883 40.2614 44.6369 38.6092 42.983C38.4343 42.8082 38.2444 42.649 38.0417 42.5075C37.9514 42.4445 37.8328 42.4557 37.7585 42.53L37.1417 43.1468L37.1417 43.1468C36.9492 43.3393 36.863 43.5895 36.8721 43.8337L38.6192 48.9167ZM38.6192 48.9167L38.6129 48.9236M38.6192 48.9167L38.6129 48.9236M38.6129 48.9236L38.6093 48.9272L36.6405 50.8959C35.0017 52.5347 32.335 52.5345 30.6964 50.8959L30.6964 50.8959M38.6129 48.9236L30.6964 50.8959M30.6964 50.8959C29.0576 49.2574 29.0576 46.5903 30.6964 44.9518L30.6964 44.9518M30.6964 50.8959L30.6964 44.9518M30.6964 44.9518L31.7835 43.8647C31.9202 43.7281 32.1498 43.8225 32.1565 44.0078L32.1565 44.0078M30.6964 44.9518L32.1565 44.0078M32.1565 44.0078C32.1764 44.5507 32.2737 45.0965 32.4536 45.6239L32.4536 45.624M32.1565 44.0078L32.4536 45.624M32.4536 45.624C32.4819 45.7067 32.4609 45.7949 32.4026 45.8531L32.0192 46.2366C31.1042 47.1516 31.0718 48.6455 31.9837 49.5755L32.1622 49.4004M32.4536 45.624L32.1622 49.4004M32.1622 49.4004L31.9837 49.5755C32.9021 50.5121 34.4112 50.5177 35.3367 49.5922C35.3367 49.5922 35.3367 49.5922 35.3367 49.5922L37.3055 47.6237L37.3055 47.6237M32.1622 49.4004L37.3055 47.6237M37.3055 47.6237C38.2293 46.6999 38.2253 45.2067 37.3055 44.2868L37.3053 44.2867M37.3055 47.6237L37.3053 44.2867M37.3053 44.2867C37.1837 44.1653 37.0621 44.0718 36.9675 44.0067L36.9673 44.0065M37.3053 44.2867L36.9673 44.0065M36.9673 44.0065C36.939 43.9871 36.9157 43.9614 36.8992 43.9314M36.9673 44.0065L36.8992 43.9314M36.8992 43.9314C36.8827 43.9014 36.8734 43.8681 36.8721 43.8339L36.8992 43.9314ZM42.7382 38.8539L42.7382 38.8539C44.377 40.4924 44.377 43.1595 42.7382 44.798L42.7382 44.798L41.6511 45.8851C41.5145 46.0217 41.2849 45.9273 41.2781 45.742C41.2582 45.1992 41.1609 44.6534 40.981 44.1259L40.981 44.1259C40.9528 44.0431 40.9737 43.9549 41.032 43.8967L41.4154 43.5133C42.3305 42.5982 42.3628 41.1043 41.4509 40.1744L41.2724 40.3494L41.4509 40.1743C40.5324 39.2377 39.0234 39.2322 38.0979 40.1577L36.1291 42.1261L36.1291 42.1261C35.2053 43.0499 35.2093 44.5432 36.1291 45.463L36.1293 45.4631C36.2509 45.5845 36.3725 45.6781 36.4671 45.7431L36.4673 45.7433C36.4956 45.7627 36.5189 45.7884 36.5354 45.8184C36.5519 45.8484 36.5612 45.8819 36.5626 45.9161L36.8124 45.9066L36.5625 45.9159C36.5717 46.1601 36.4855 46.4104 36.2929 46.603L36.4697 46.7798L36.2929 46.603L35.6761 47.2198C35.6018 47.2941 35.4832 47.3053 35.3929 47.2424C35.1902 47.1008 35.0003 46.9417 34.8255 46.7669C33.1733 45.113 33.1958 42.4616 34.8153 40.833L34.8155 40.8332L34.8218 40.8263L34.8254 40.8227L36.7941 38.8539C38.4329 37.2151 41.0997 37.2154 42.7382 38.8539Z" stroke="#E2E2E2" stroke-opacity="0.5" stroke-width="0.5"/>
    <defs>
        <linearGradient id="paint0_linear_102_17" x1="11.2173" y1="2.37492" x2="64.2173" y2="72.3749" gradientUnits="userSpaceOnUse">
            <stop stop-color="#6D01F5"/>
            <stop offset="1" stop-color="#33EBF7" stop-opacity="0"/>
        </linearGradient>
    </defs>
</svg>
