<svg width="634" height="489" xmlns="http://www.w3.org/2000/svg" xmlns:xlink="http://www.w3.org/1999/xlink" xml:space="preserve" overflow="hidden"><defs><clipPath id="clip0"><rect x="1883" y="888" width="634" height="489"/></clipPath></defs><g clip-path="url(#clip0)" transform="translate(-1883 -888)"><path d="M2286 1093C2286 1144.91 2243.91 1187 2192 1187 2140.09 1187 2098 1144.91 2098 1093 2098 1041.09 2140.09 999 2192 999 2243.91 999 2286 1041.09 2286 1093Z" fill="#0265E0" fill-rule="evenodd"/><path d="M2388 985.5C2388 1002.9 2373.9 1017 2356.5 1017 2339.1 1017 2325 1002.9 2325 985.5 2325 968.103 2339.1 954 2356.5 954 2373.9 954 2388 968.103 2388 985.5Z" fill="#5165F6" fill-rule="evenodd"/><path d="M2043 1345.5C2043 1362.9 2029.12 1377 2012 1377 1994.88 1377 1981 1362.9 1981 1345.5 1981 1328.1 1994.88 1314 2012 1314 2029.12 1314 2043 1328.1 2043 1345.5Z" fill="#00B1ED" fill-rule="evenodd"/><path d="M2502.21 961.592C2476.37 913.835 2419.21 888 2342.48 888 2268.88 888 2185.11 911.487 2106.03 955.329 1936.9 1046.93 1845.3 1194.9 1897.76 1291.19 1910.28 1312.33 1928.29 1330.34 1950.21 1341.3 1951 1330.34 1954.13 1320.16 1960.39 1311.55 1945.52 1302.93 1933.77 1291.19 1925.94 1276.32 1882.88 1198.03 1972.92 1063.37 2122.47 981.947 2196.85 941.237 2275.93 918.533 2344.05 918.533 2409.04 918.533 2456.01 938.888 2476.37 975.684 2496.73 1012.48 2488.12 1063.37 2453.66 1117.39 2416.86 1174.54 2355.01 1228.56 2280.63 1270.05 2211.73 1307.63 2139.69 1329.55 2075.49 1332.68 2076.27 1336.6 2077.06 1340.51 2077.06 1345.21 2077.06 1351.47 2075.49 1357.74 2073.92 1364 2143.61 1360.87 2221.91 1338.16 2296.29 1297.45 2375.37 1254.39 2441.14 1196.46 2481.07 1134.61 2519.43 1070.41 2528.05 1008.57 2502.21 961.592Z" fill="#7F7F7F" fill-rule="evenodd"/><path d="M2397.05 1033C2389.22 1040.06 2379.04 1044.76 2368.86 1047.11 2381.39 1093.38 2328.93 1165.52 2245.93 1211 2200.51 1236.09 2152.75 1249.42 2112.03 1249.42 2073.66 1249.42 2047.04 1237.66 2035.29 1216.49 2024.33 1196.88 2028.25 1170.22 2045.47 1141.21 2042.34 1123.17 2043.12 1104.36 2047.04 1086.32 2038.43 1095.73 2029.81 1106.71 2022.77 1117.69 1996.14 1160.03 1990.66 1200.02 2007.89 1231.38 2025.12 1262.75 2061.92 1280 2112.03 1280 2158.23 1280 2211.47 1265.1 2260.81 1237.66 2362.6 1182.77 2419.76 1094.95 2397.05 1033Z" fill="#595959" fill-rule="evenodd"/></g></svg>